<svg width="33" height="27" viewBox="0 0 33 27" fill="none" xmlns="http://www.w3.org/2000/svg">
<g clip-path="url(#clip0_2584_28)">
<path d="M33 3.28708C31.7643 3.8357 30.4536 4.19582 29.1114 4.35545C30.5094 3.51574 31.5828 2.18602 32.0882 0.601674C30.7593 1.39202 29.3053 1.94887 27.7891 2.24816C26.554 0.92955 24.7946 0.105469 22.8472 0.105469C19.1082 0.105469 16.0767 3.14342 16.0767 6.89035C16.0767 7.42221 16.1366 7.93999 16.252 8.43671C10.6252 8.15366 5.63655 5.4525 2.29724 1.34747C1.71458 2.34957 1.38071 3.51522 1.38071 4.75851C1.38071 7.11255 2.57606 9.18923 4.39261 10.406C3.31747 10.3723 2.26598 10.0813 1.32593 9.55728C1.32554 9.5857 1.32554 9.61412 1.32554 9.64267C1.32554 12.9301 3.65926 15.6725 6.75636 16.2958C5.75939 16.5675 4.71362 16.6073 3.69896 16.412C4.56045 19.1077 7.06084 21.0692 10.0234 21.1241C7.70627 22.9439 4.78693 24.0286 1.61507 24.0286C1.0685 24.0286 0.529676 23.9965 0 23.9338C2.99617 25.8589 6.55488 26.9822 10.3782 26.9822C22.8315 26.9822 29.6412 16.6433 29.6412 7.67722C29.6412 7.38294 29.6348 7.09033 29.6216 6.7994C30.9471 5.83914 32.0911 4.64976 33 3.28708Z" fill="#55ACEE"/>
</g>
<defs>
<clipPath id="clip0_2584_28">
<rect width="33" height="27" fill="white"/>
</clipPath>
</defs>
</svg>
