<svg width="33" height="33" viewBox="0 0 33 33" fill="none" xmlns="http://www.w3.org/2000/svg">
<path d="M16.5002 0C7.38854 0 0 7.57401 0 16.9178C0 24.3925 4.72775 30.7339 11.2839 32.9709C12.1084 33.1275 12.4111 32.6039 12.4111 32.1571C12.4111 31.7537 12.3958 30.4211 12.3887 29.0074C7.7984 30.0308 6.82984 27.0113 6.82984 27.0113C6.07909 25.0558 4.99769 24.5359 4.99769 24.5359C3.50064 23.4859 5.11055 23.5075 5.11055 23.5075C6.76748 23.6268 7.64 25.2509 7.64 25.2509C9.11163 27.8372 11.5 27.0895 12.4415 26.6572C12.5897 25.5637 13.0172 24.8174 13.4891 24.395C9.82427 23.9672 5.97168 22.5165 5.97168 16.0342C5.97168 14.1871 6.61617 12.6779 7.67168 11.4931C7.50024 11.067 6.93544 9.3463 7.83139 7.01607C7.83139 7.01607 9.21707 6.56149 12.3702 8.75012C13.6864 8.3754 15.0978 8.18744 16.5002 8.18101C17.9023 8.18744 19.3151 8.3754 20.6336 8.75029C23.7829 6.56132 25.1666 7.01624 25.1666 7.01624C26.0647 9.3463 25.4998 11.0672 25.3283 11.4931C26.3863 12.6779 27.0265 14.1871 27.0265 16.0342C27.0265 22.532 23.1665 23.9628 19.4923 24.3815C20.0841 24.9066 20.6115 25.936 20.6115 27.5144C20.6115 29.778 20.5923 31.5999 20.5923 32.1571C20.5923 32.6073 20.8893 33.1348 21.7257 32.9687C28.2782 30.7291 33 24.3899 33 16.9178C33 7.57418 25.6125 0 16.5002 0ZM6.17991 24.0996C6.14361 24.1837 6.01458 24.2089 5.8971 24.1512C5.77731 24.0961 5.71016 23.9814 5.74893 23.8971C5.78441 23.8105 5.91377 23.7865 6.03306 23.8445C6.15302 23.8997 6.22133 24.0154 6.17991 24.0996ZM6.99155 24.8421C6.91284 24.9171 6.7589 24.8822 6.65462 24.764C6.54671 24.6461 6.52641 24.4884 6.60627 24.4124C6.68729 24.3377 6.83661 24.3727 6.94468 24.4906C7.05259 24.61 7.07372 24.7665 6.99155 24.8421ZM7.54826 25.7922C7.44711 25.8643 7.28178 25.7968 7.17965 25.6462C7.0785 25.4958 7.0785 25.3155 7.18179 25.2431C7.28426 25.1709 7.44711 25.2358 7.55073 25.3852C7.65155 25.5381 7.65155 25.7186 7.54826 25.7922ZM8.48991 26.8926C8.39949 26.9947 8.20694 26.9673 8.06586 26.8278C7.92165 26.6914 7.88139 26.4979 7.97214 26.3955C8.06372 26.293 8.25743 26.3219 8.39949 26.4603C8.54271 26.5963 8.58644 26.7914 8.48991 26.8926ZM9.70695 27.2639C9.66702 27.3965 9.48156 27.4568 9.29462 27.4004C9.10817 27.3424 8.9859 27.1873 9.02369 27.0533C9.06246 26.92 9.24874 26.8572 9.43701 26.9174C9.62346 26.9751 9.74573 27.1292 9.70695 27.2639ZM11.092 27.4216C11.0966 27.561 10.9382 27.6767 10.742 27.6792C10.5447 27.6838 10.3851 27.5708 10.383 27.4336C10.383 27.2927 10.5379 27.1781 10.7351 27.1747C10.9314 27.1709 11.092 27.2828 11.092 27.4216ZM12.4526 27.3681C12.4761 27.5041 12.3399 27.644 12.145 27.6813C11.9534 27.7171 11.7761 27.633 11.7518 27.498C11.728 27.3585 11.8668 27.2187 12.058 27.1825C12.2532 27.1478 12.4278 27.2297 12.4526 27.3681Z" fill="#161614"/>
</svg>
